<svg xmlns="http://www.w3.org/2000/svg" xmlns:xlink="http://www.w3.org/1999/xlink" xmlns:inkscape="http://www.inkscape.org/namespaces/inkscape" version="1.1" width="712.21066" height="279.71583" viewBox="0 0 712.21066 279.71583">
<defs>
<clipPath id="clip_1">
<path transform="matrix(1,0,0,-1,0,279.71583)" d="M54.465627 45.73125H705.0106V268.92845H54.465627Z"/>
</clipPath>
<clipPath id="clip_2">
<path transform="matrix(1,0,0,-1,0,279.71583)" d="M54.465627 45.73125H705.0106V268.92845H54.465627Z"/>
</clipPath>
<clipPath id="clip_3">
<path transform="matrix(1,0,0,-1,0,279.71583)" d="M54.465627 45.73125H705.0106V268.92845H54.465627Z"/>
</clipPath>
<clipPath id="clip_4">
<path transform="matrix(1,0,0,-1,0,279.71583)" d="M54.465627 45.73125H705.0106V268.92845H54.465627Z"/>
</clipPath>
<clipPath id="clip_5">
<path transform="matrix(1,0,0,-1,0,279.71583)" d="M54.465627 45.73125H705.0106V268.92845H54.465627Z"/>
</clipPath>
<clipPath id="clip_6">
<path transform="matrix(1,0,0,-1,0,279.71583)" d="M54.465627 45.73125H705.0106V268.92845H54.465627Z"/>
</clipPath>
<clipPath id="clip_7">
<path transform="matrix(1,0,0,-1,0,279.71583)" d="M54.465627 45.73125H705.0106V268.92845H54.465627Z"/>
</clipPath>
<clipPath id="clip_8">
<path transform="matrix(1,0,0,-1,0,279.71583)" d="M54.465627 45.73125H705.0106V268.92845H54.465627Z"/>
</clipPath>
<clipPath id="clip_9">
<path transform="matrix(1,0,0,-1,0,279.71583)" d="M54.465627 45.73125H705.0106V268.92845H54.465627Z"/>
</clipPath>
<clipPath id="clip_10">
<path transform="matrix(1,0,0,-1,0,279.71583)" d="M54.465627 45.73125H705.0106V268.92845H54.465627Z"/>
</clipPath>
<clipPath id="clip_11">
<path transform="matrix(1,0,0,-1,0,279.71583)" d="M54.465627 45.73125H705.0106V268.92845H54.465627Z"/>
</clipPath>
<clipPath id="clip_12">
<path transform="matrix(1,0,0,-1,0,279.71583)" d="M54.465627 45.73125H705.0106V268.92845H54.465627Z"/>
</clipPath>
<clipPath id="clip_13">
<path transform="matrix(1,0,0,-1,0,279.71583)" d="M54.465627 45.73125H705.0106V268.92845H54.465627Z"/>
</clipPath>
<clipPath id="clip_14">
<path transform="matrix(1,0,0,-1,0,279.71583)" d="M54.465627 45.73125H705.0106V268.92845H54.465627Z"/>
</clipPath>
<clipPath id="clip_15">
<path transform="matrix(1,0,0,-1,0,279.71583)" d="M54.465627 45.73125H705.0106V268.92845H54.465627Z"/>
</clipPath>
<clipPath id="clip_16">
<path transform="matrix(1,0,0,-1,0,279.71583)" d="M54.465627 45.73125H705.0106V268.92845H54.465627Z"/>
</clipPath>
<clipPath id="clip_17">
<path transform="matrix(1,0,0,-1,0,279.71583)" d="M54.465627 45.73125H705.0106V268.92845H54.465627Z"/>
</clipPath>
<clipPath id="clip_18">
<path transform="matrix(1,0,0,-1,0,279.71583)" d="M54.465627 45.73125H705.0106V268.92845H54.465627Z"/>
</clipPath>
<clipPath id="clip_19">
<path transform="matrix(1,0,0,-1,0,279.71583)" d="M54.465627 45.73125H705.0106V268.92845H54.465627Z"/>
</clipPath>
<clipPath id="clip_20">
<path transform="matrix(1,0,0,-1,0,279.71583)" d="M54.465627 45.73125H705.0106V268.92845H54.465627Z"/>
</clipPath>
<clipPath id="clip_21">
<path transform="matrix(1,0,0,-1,0,279.71583)" d="M54.465627 45.73125H705.0106V268.92845H54.465627Z"/>
</clipPath>
<clipPath id="clip_22">
<path transform="matrix(1,0,0,-1,0,279.71583)" d="M54.465627 45.73125H705.0106V268.92845H54.465627Z"/>
</clipPath>
<clipPath id="clip_23">
<path transform="matrix(1,0,0,-1,0,279.71583)" d="M54.465627 45.73125H705.0106V268.92845H54.465627Z"/>
</clipPath>
<clipPath id="clip_24">
<path transform="matrix(1,0,0,-1,0,279.71583)" d="M54.465627 45.73125H705.0106V268.92845H54.465627Z"/>
</clipPath>
<clipPath id="clip_25">
<path transform="matrix(1,0,0,-1,0,279.71583)" d="M54.465627 45.73125H705.0106V268.92845H54.465627Z"/>
</clipPath>
<clipPath id="clip_26">
<path transform="matrix(1,0,0,-1,0,279.71583)" d="M54.465627 45.73125H705.0106V268.92845H54.465627Z"/>
</clipPath>
<clipPath id="clip_27">
<path transform="matrix(1,0,0,-1,0,279.71583)" d="M54.465627 45.73125H705.0106V268.92845H54.465627Z"/>
</clipPath>
<clipPath id="clip_28">
<path transform="matrix(1,0,0,-1,0,279.71583)" d="M54.465627 45.73125H705.0106V268.92845H54.465627Z"/>
</clipPath>
<clipPath id="clip_29">
<path transform="matrix(1,0,0,-1,0,279.71583)" d="M54.465627 45.73125H705.0106V268.92845H54.465627Z"/>
</clipPath>
<clipPath id="clip_30">
<path transform="matrix(1,0,0,-1,0,279.71583)" d="M54.465627 45.73125H705.0106V268.92845H54.465627Z"/>
</clipPath>
<clipPath id="clip_31">
<path transform="matrix(1,0,0,-1,0,279.71583)" d="M54.465627 45.73125H705.0106V268.92845H54.465627Z"/>
</clipPath>
<clipPath id="clip_32">
<path transform="matrix(1,0,0,-1,0,279.71583)" d="M54.465627 45.73125H705.0106V268.92845H54.465627Z"/>
</clipPath>
<clipPath id="clip_33">
<path transform="matrix(1,0,0,-1,0,279.71583)" d="M54.465627 45.73125H705.0106V268.92845H54.465627Z"/>
</clipPath>
<clipPath id="clip_34">
<path transform="matrix(1,0,0,-1,0,279.71583)" d="M54.465627 45.73125H705.0106V268.92845H54.465627Z"/>
</clipPath>
<clipPath id="clip_35">
<path transform="matrix(1,0,0,-1,0,279.71583)" d="M54.465627 45.73125H705.0106V268.92845H54.465627Z"/>
</clipPath>
<clipPath id="clip_36">
<path transform="matrix(1,0,0,-1,0,279.71583)" d="M54.465627 45.73125H705.0106V268.92845H54.465627Z"/>
</clipPath>
<clipPath id="clip_37">
<path transform="matrix(1,0,0,-1,0,279.71583)" d="M54.465627 45.73125H705.0106V268.92845H54.465627Z"/>
</clipPath>
<clipPath id="clip_38">
<path transform="matrix(1,0,0,-1,0,279.71583)" d="M54.465627 45.73125H705.0106V268.92845H54.465627Z"/>
</clipPath>
<clipPath id="clip_39">
<path transform="matrix(1,0,0,-1,0,279.71583)" d="M54.465627 45.73125H705.0106V268.92845H54.465627Z"/>
</clipPath>
<clipPath id="clip_40">
<path transform="matrix(1,0,0,-1,0,279.71583)" d="M54.465627 45.73125H705.0106V268.92845H54.465627Z"/>
</clipPath>
<clipPath id="clip_41">
<path transform="matrix(1,0,0,-1,0,279.71583)" d="M54.465627 45.73125H705.0106V268.92845H54.465627Z"/>
</clipPath>
<clipPath id="clip_42">
<path transform="matrix(1,0,0,-1,0,279.71583)" d="M54.465627 45.73125H705.0106V268.92845H54.465627Z"/>
</clipPath>
<clipPath id="clip_43">
<path transform="matrix(1,0,0,-1,0,279.71583)" d="M54.465627 45.73125H705.0106V268.92845H54.465627Z"/>
</clipPath>
<clipPath id="clip_44">
<path transform="matrix(1,0,0,-1,0,279.71583)" d="M54.465627 45.73125H705.0106V268.92845H54.465627Z"/>
</clipPath>
<clipPath id="clip_45">
<path transform="matrix(1,0,0,-1,0,279.71583)" d="M54.465627 45.73125H705.0106V268.92845H54.465627Z"/>
</clipPath>
<clipPath id="clip_46">
<path transform="matrix(1,0,0,-1,0,279.71583)" d="M54.465627 45.73125H705.0106V268.92845H54.465627Z"/>
</clipPath>
<clipPath id="clip_47">
<path transform="matrix(1,0,0,-1,0,279.71583)" d="M54.465627 45.73125H705.0106V268.92845H54.465627Z"/>
</clipPath>
<clipPath id="clip_48">
<path transform="matrix(1,0,0,-1,0,279.71583)" d="M54.465627 45.73125H705.0106V268.92845H54.465627Z"/>
</clipPath>
<clipPath id="clip_49">
<path transform="matrix(1,0,0,-1,0,279.71583)" d="M54.465627 45.73125H705.0106V268.92845H54.465627Z"/>
</clipPath>
<clipPath id="clip_50">
<path transform="matrix(1,0,0,-1,0,279.71583)" d="M54.465627 45.73125H705.0106V268.92845H54.465627Z"/>
</clipPath>
<clipPath id="clip_51">
<path transform="matrix(1,0,0,-1,0,279.71583)" d="M54.465627 45.73125H705.0106V268.92845H54.465627Z"/>
</clipPath>
<clipPath id="clip_52">
<path transform="matrix(1,0,0,-1,0,279.71583)" d="M54.465627 45.73125H705.0106V268.92845H54.465627Z"/>
</clipPath>
<clipPath id="clip_53">
<path transform="matrix(1,0,0,-1,0,279.71583)" d="M54.465627 45.73125H705.0106V268.92845H54.465627Z"/>
</clipPath>
<clipPath id="clip_54">
<path transform="matrix(1,0,0,-1,0,279.71583)" d="M54.465627 45.73125H705.0106V268.92845H54.465627Z"/>
</clipPath>
<clipPath id="clip_55">
<path transform="matrix(1,0,0,-1,0,279.71583)" d="M54.465627 45.73125H705.0106V268.92845H54.465627Z"/>
</clipPath>
<clipPath id="clip_56">
<path transform="matrix(1,0,0,-1,0,279.71583)" d="M54.465627 45.73125H705.0106V268.92845H54.465627Z"/>
</clipPath>
<clipPath id="clip_57">
<path transform="matrix(1,0,0,-1,0,279.71583)" d="M54.465627 45.73125H705.0106V268.92845H54.465627Z"/>
</clipPath>
<clipPath id="clip_58">
<path transform="matrix(1,0,0,-1,0,279.71583)" d="M54.465627 45.73125H705.0106V268.92845H54.465627Z"/>
</clipPath>
<clipPath id="clip_59">
<path transform="matrix(1,0,0,-1,0,279.71583)" d="M54.465627 45.73125H705.0106V268.92845H54.465627Z"/>
</clipPath>
<clipPath id="clip_60">
<path transform="matrix(1,0,0,-1,0,279.71583)" d="M54.465627 45.73125H705.0106V268.92845H54.465627Z"/>
</clipPath>
<clipPath id="clip_61">
<path transform="matrix(1,0,0,-1,0,279.71583)" d="M54.465627 45.73125H705.0106V268.92845H54.465627Z"/>
</clipPath>
<clipPath id="clip_62">
<path transform="matrix(1,0,0,-1,0,279.71583)" d="M54.465627 45.73125H705.0106V268.92845H54.465627Z"/>
</clipPath>
<clipPath id="clip_63">
<path transform="matrix(1,0,0,-1,0,279.71583)" d="M54.465627 45.73125H705.0106V268.92845H54.465627Z"/>
</clipPath>
<clipPath id="clip_64">
<path transform="matrix(1,0,0,-1,0,279.71583)" d="M54.465627 45.73125H705.0106V268.92845H54.465627Z"/>
</clipPath>
</defs>
<path transform="matrix(1,0,0,-1,0,279.71583)" d="M0 0H712.21066V279.71583H0Z" fill="#ffffff"/>
<path transform="matrix(1,0,0,-1,0,279.71583)" d="M54.465627 45.73125H705.0106V268.92845H54.465627Z" fill="#ffffff"/>
<path transform="matrix(1,0,0,-1,0,279.71583)" d="M91.4749 45.73125V42.23125"/>
<path transform="matrix(1,0,0,-1,0,279.71583)" stroke-width=".8" stroke-linecap="butt" stroke-linejoin="round" fill="none" stroke="#000000" d="M91.4749 45.73125V42.23125"/>
<text xml:space="preserve" transform="matrix(1 0 -0 1 87.7249 251.5002)" font-size="15" font-family="TeXGyreTermes"><tspan y="0" x="0">0</tspan></text>
<path transform="matrix(1,0,0,-1,0,279.71583)" d="M110.07253 45.73125V42.23125"/>
<path transform="matrix(1,0,0,-1,0,279.71583)" stroke-width=".8" stroke-linecap="butt" stroke-linejoin="round" fill="none" stroke="#000000" d="M110.07253 45.73125V42.23125"/>
<text xml:space="preserve" transform="matrix(1 0 -0 1 106.32253 251.5002)" font-size="15" font-family="TeXGyreTermes"><tspan y="0" x="0">2</tspan></text>
<path transform="matrix(1,0,0,-1,0,279.71583)" d="M128.67015 45.73125V42.23125"/>
<path transform="matrix(1,0,0,-1,0,279.71583)" stroke-width=".8" stroke-linecap="butt" stroke-linejoin="round" fill="none" stroke="#000000" d="M128.67015 45.73125V42.23125"/>
<text xml:space="preserve" transform="matrix(1 0 -0 1 124.92016 251.5002)" font-size="15" font-family="TeXGyreTermes"><tspan y="0" x="0">3</tspan></text>
<path transform="matrix(1,0,0,-1,0,279.71583)" d="M147.26779 45.73125V42.23125"/>
<path transform="matrix(1,0,0,-1,0,279.71583)" stroke-width=".8" stroke-linecap="butt" stroke-linejoin="round" fill="none" stroke="#000000" d="M147.26779 45.73125V42.23125"/>
<text xml:space="preserve" transform="matrix(1 0 -0 1 143.51778 251.5002)" font-size="15" font-family="TeXGyreTermes"><tspan y="0" x="0">4</tspan></text>
<path transform="matrix(1,0,0,-1,0,279.71583)" d="M165.86542 45.73125V42.23125"/>
<path transform="matrix(1,0,0,-1,0,279.71583)" stroke-width=".8" stroke-linecap="butt" stroke-linejoin="round" fill="none" stroke="#000000" d="M165.86542 45.73125V42.23125"/>
<text xml:space="preserve" transform="matrix(1 0 -0 1 162.11542 251.5002)" font-size="15" font-family="TeXGyreTermes"><tspan y="0" x="0">5</tspan></text>
<path transform="matrix(1,0,0,-1,0,279.71583)" d="M184.46305 45.73125V42.23125"/>
<path transform="matrix(1,0,0,-1,0,279.71583)" stroke-width=".8" stroke-linecap="butt" stroke-linejoin="round" fill="none" stroke="#000000" d="M184.46305 45.73125V42.23125"/>
<text xml:space="preserve" transform="matrix(1 0 -0 1 180.71305 251.5002)" font-size="15" font-family="TeXGyreTermes"><tspan y="0" x="0">6</tspan></text>
<path transform="matrix(1,0,0,-1,0,279.71583)" d="M203.06067 45.73125V42.23125"/>
<path transform="matrix(1,0,0,-1,0,279.71583)" stroke-width=".8" stroke-linecap="butt" stroke-linejoin="round" fill="none" stroke="#000000" d="M203.06067 45.73125V42.23125"/>
<text xml:space="preserve" transform="matrix(1 0 -0 1 199.31067 251.5002)" font-size="15" font-family="TeXGyreTermes"><tspan y="0" x="0">7</tspan></text>
<path transform="matrix(1,0,0,-1,0,279.71583)" d="M221.6583 45.73125V42.23125"/>
<path transform="matrix(1,0,0,-1,0,279.71583)" stroke-width=".8" stroke-linecap="butt" stroke-linejoin="round" fill="none" stroke="#000000" d="M221.6583 45.73125V42.23125"/>
<text xml:space="preserve" transform="matrix(1 0 -0 1 217.9083 251.5002)" font-size="15" font-family="TeXGyreTermes"><tspan y="0" x="0">8</tspan></text>
<path transform="matrix(1,0,0,-1,0,279.71583)" d="M240.25592 45.73125V42.23125"/>
<path transform="matrix(1,0,0,-1,0,279.71583)" stroke-width=".8" stroke-linecap="butt" stroke-linejoin="round" fill="none" stroke="#000000" d="M240.25592 45.73125V42.23125"/>
<text xml:space="preserve" transform="matrix(1 0 -0 1 236.50592 251.5002)" font-size="15" font-family="TeXGyreTermes"><tspan y="0" x="0">9</tspan></text>
<path transform="matrix(1,0,0,-1,0,279.71583)" d="M258.85356 45.73125V42.23125"/>
<path transform="matrix(1,0,0,-1,0,279.71583)" stroke-width=".8" stroke-linecap="butt" stroke-linejoin="round" fill="none" stroke="#000000" d="M258.85356 45.73125V42.23125"/>
<text xml:space="preserve" transform="matrix(1 0 -0 1 251.35355 251.5002)" font-size="15" font-family="TeXGyreTermes"><tspan y="0" x="0 7.5">10</tspan></text>
<path transform="matrix(1,0,0,-1,0,279.71583)" d="M277.45118 45.73125V42.23125"/>
<path transform="matrix(1,0,0,-1,0,279.71583)" stroke-width=".8" stroke-linecap="butt" stroke-linejoin="round" fill="none" stroke="#000000" d="M277.45118 45.73125V42.23125"/>
<text xml:space="preserve" transform="matrix(1 0 -0 1 269.95118 251.5002)" font-size="15" font-family="TeXGyreTermes"><tspan y="0" x="0 7.5">11</tspan></text>
<path transform="matrix(1,0,0,-1,0,279.71583)" d="M296.0488 45.73125V42.23125"/>
<path transform="matrix(1,0,0,-1,0,279.71583)" stroke-width=".8" stroke-linecap="butt" stroke-linejoin="round" fill="none" stroke="#000000" d="M296.0488 45.73125V42.23125"/>
<text xml:space="preserve" transform="matrix(1 0 -0 1 288.5488 251.5002)" font-size="15" font-family="TeXGyreTermes"><tspan y="0" x="0 7.5">12</tspan></text>
<path transform="matrix(1,0,0,-1,0,279.71583)" d="M314.64643 45.73125V42.23125"/>
<path transform="matrix(1,0,0,-1,0,279.71583)" stroke-width=".8" stroke-linecap="butt" stroke-linejoin="round" fill="none" stroke="#000000" d="M314.64643 45.73125V42.23125"/>
<text xml:space="preserve" transform="matrix(1 0 -0 1 307.14643 251.5002)" font-size="15" font-family="TeXGyreTermes"><tspan y="0" x="0 7.5">13</tspan></text>
<path transform="matrix(1,0,0,-1,0,279.71583)" d="M333.24406 45.73125V42.23125"/>
<path transform="matrix(1,0,0,-1,0,279.71583)" stroke-width=".8" stroke-linecap="butt" stroke-linejoin="round" fill="none" stroke="#000000" d="M333.24406 45.73125V42.23125"/>
<text xml:space="preserve" transform="matrix(1 0 -0 1 325.74406 251.5002)" font-size="15" font-family="TeXGyreTermes"><tspan y="0" x="0 7.5">14</tspan></text>
<path transform="matrix(1,0,0,-1,0,279.71583)" d="M351.84169 45.73125V42.23125"/>
<path transform="matrix(1,0,0,-1,0,279.71583)" stroke-width=".8" stroke-linecap="butt" stroke-linejoin="round" fill="none" stroke="#000000" d="M351.84169 45.73125V42.23125"/>
<text xml:space="preserve" transform="matrix(1 0 -0 1 344.34169 251.5002)" font-size="15" font-family="TeXGyreTermes"><tspan y="0" x="0 7.5">15</tspan></text>
<path transform="matrix(1,0,0,-1,0,279.71583)" d="M370.4393 45.73125V42.23125"/>
<path transform="matrix(1,0,0,-1,0,279.71583)" stroke-width=".8" stroke-linecap="butt" stroke-linejoin="round" fill="none" stroke="#000000" d="M370.4393 45.73125V42.23125"/>
<text xml:space="preserve" transform="matrix(1 0 -0 1 362.9393 251.5002)" font-size="15" font-family="TeXGyreTermes"><tspan y="0" x="0 7.5">16</tspan></text>
<path transform="matrix(1,0,0,-1,0,279.71583)" d="M389.03694 45.73125V42.23125"/>
<path transform="matrix(1,0,0,-1,0,279.71583)" stroke-width=".8" stroke-linecap="butt" stroke-linejoin="round" fill="none" stroke="#000000" d="M389.03694 45.73125V42.23125"/>
<text xml:space="preserve" transform="matrix(1 0 -0 1 381.53694 251.5002)" font-size="15" font-family="TeXGyreTermes"><tspan y="0" x="0 7.5">17</tspan></text>
<path transform="matrix(1,0,0,-1,0,279.71583)" d="M407.63456 45.73125V42.23125"/>
<path transform="matrix(1,0,0,-1,0,279.71583)" stroke-width=".8" stroke-linecap="butt" stroke-linejoin="round" fill="none" stroke="#000000" d="M407.63456 45.73125V42.23125"/>
<text xml:space="preserve" transform="matrix(1 0 -0 1 400.13456 251.5002)" font-size="15" font-family="TeXGyreTermes"><tspan y="0" x="0 7.5">18</tspan></text>
<path transform="matrix(1,0,0,-1,0,279.71583)" d="M426.2322 45.73125V42.23125"/>
<path transform="matrix(1,0,0,-1,0,279.71583)" stroke-width=".8" stroke-linecap="butt" stroke-linejoin="round" fill="none" stroke="#000000" d="M426.2322 45.73125V42.23125"/>
<text xml:space="preserve" transform="matrix(1 0 -0 1 418.7322 251.5002)" font-size="15" font-family="TeXGyreTermes"><tspan y="0" x="0 7.5">19</tspan></text>
<path transform="matrix(1,0,0,-1,0,279.71583)" d="M444.82984 45.73125V42.23125"/>
<path transform="matrix(1,0,0,-1,0,279.71583)" stroke-width=".8" stroke-linecap="butt" stroke-linejoin="round" fill="none" stroke="#000000" d="M444.82984 45.73125V42.23125"/>
<text xml:space="preserve" transform="matrix(1 0 -0 1 437.32984 251.5002)" font-size="15" font-family="TeXGyreTermes"><tspan y="0" x="0 7.5">23</tspan></text>
<path transform="matrix(1,0,0,-1,0,279.71583)" d="M463.42747 45.73125V42.23125"/>
<path transform="matrix(1,0,0,-1,0,279.71583)" stroke-width=".8" stroke-linecap="butt" stroke-linejoin="round" fill="none" stroke="#000000" d="M463.42747 45.73125V42.23125"/>
<text xml:space="preserve" transform="matrix(1 0 -0 1 455.92747 251.5002)" font-size="15" font-family="TeXGyreTermes"><tspan y="0" x="0 7.5">24</tspan></text>
<path transform="matrix(1,0,0,-1,0,279.71583)" d="M482.0251 45.73125V42.23125"/>
<path transform="matrix(1,0,0,-1,0,279.71583)" stroke-width=".8" stroke-linecap="butt" stroke-linejoin="round" fill="none" stroke="#000000" d="M482.0251 45.73125V42.23125"/>
<text xml:space="preserve" transform="matrix(1 0 -0 1 474.5251 251.5002)" font-size="15" font-family="TeXGyreTermes"><tspan y="0" x="0 7.5">25</tspan></text>
<path transform="matrix(1,0,0,-1,0,279.71583)" d="M500.6227 45.73125V42.23125"/>
<path transform="matrix(1,0,0,-1,0,279.71583)" stroke-width=".8" stroke-linecap="butt" stroke-linejoin="round" fill="none" stroke="#000000" d="M500.6227 45.73125V42.23125"/>
<text xml:space="preserve" transform="matrix(1 0 -0 1 493.1227 251.5002)" font-size="15" font-family="TeXGyreTermes"><tspan y="0" x="0 7.5">26</tspan></text>
<path transform="matrix(1,0,0,-1,0,279.71583)" d="M519.22036 45.73125V42.23125"/>
<path transform="matrix(1,0,0,-1,0,279.71583)" stroke-width=".8" stroke-linecap="butt" stroke-linejoin="round" fill="none" stroke="#000000" d="M519.22036 45.73125V42.23125"/>
<text xml:space="preserve" transform="matrix(1 0 -0 1 511.72035 251.5002)" font-size="15" font-family="TeXGyreTermes"><tspan y="0" x="0 7.5">27</tspan></text>
<path transform="matrix(1,0,0,-1,0,279.71583)" d="M537.81796 45.73125V42.23125"/>
<path transform="matrix(1,0,0,-1,0,279.71583)" stroke-width=".8" stroke-linecap="butt" stroke-linejoin="round" fill="none" stroke="#000000" d="M537.81796 45.73125V42.23125"/>
<text xml:space="preserve" transform="matrix(1 0 -0 1 530.31796 251.5002)" font-size="15" font-family="TeXGyreTermes"><tspan y="0" x="0 7.5">28</tspan></text>
<path transform="matrix(1,0,0,-1,0,279.71583)" d="M556.4156 45.73125V42.23125"/>
<path transform="matrix(1,0,0,-1,0,279.71583)" stroke-width=".8" stroke-linecap="butt" stroke-linejoin="round" fill="none" stroke="#000000" d="M556.4156 45.73125V42.23125"/>
<text xml:space="preserve" transform="matrix(1 0 -0 1 548.9156 251.5002)" font-size="15" font-family="TeXGyreTermes"><tspan y="0" x="0 7.5">29</tspan></text>
<path transform="matrix(1,0,0,-1,0,279.71583)" d="M575.0132 45.73125V42.23125"/>
<path transform="matrix(1,0,0,-1,0,279.71583)" stroke-width=".8" stroke-linecap="butt" stroke-linejoin="round" fill="none" stroke="#000000" d="M575.0132 45.73125V42.23125"/>
<text xml:space="preserve" transform="matrix(1 0 -0 1 567.5132 251.5002)" font-size="15" font-family="TeXGyreTermes"><tspan y="0" x="0 7.5">30</tspan></text>
<path transform="matrix(1,0,0,-1,0,279.71583)" d="M593.61087 45.73125V42.23125"/>
<path transform="matrix(1,0,0,-1,0,279.71583)" stroke-width=".8" stroke-linecap="butt" stroke-linejoin="round" fill="none" stroke="#000000" d="M593.61087 45.73125V42.23125"/>
<text xml:space="preserve" transform="matrix(1 0 -0 1 586.11087 251.5002)" font-size="15" font-family="TeXGyreTermes"><tspan y="0" x="0 7.5">31</tspan></text>
<path transform="matrix(1,0,0,-1,0,279.71583)" d="M612.20846 45.73125V42.23125"/>
<path transform="matrix(1,0,0,-1,0,279.71583)" stroke-width=".8" stroke-linecap="butt" stroke-linejoin="round" fill="none" stroke="#000000" d="M612.20846 45.73125V42.23125"/>
<text xml:space="preserve" transform="matrix(1 0 -0 1 604.70846 251.5002)" font-size="15" font-family="TeXGyreTermes"><tspan y="0" x="0 7.5">32</tspan></text>
<path transform="matrix(1,0,0,-1,0,279.71583)" d="M630.8061 45.73125V42.23125"/>
<path transform="matrix(1,0,0,-1,0,279.71583)" stroke-width=".8" stroke-linecap="butt" stroke-linejoin="round" fill="none" stroke="#000000" d="M630.8061 45.73125V42.23125"/>
<text xml:space="preserve" transform="matrix(1 0 -0 1 623.3061 251.5002)" font-size="15" font-family="TeXGyreTermes"><tspan y="0" x="0 7.5">33</tspan></text>
<path transform="matrix(1,0,0,-1,0,279.71583)" d="M649.40377 45.73125V42.23125"/>
<path transform="matrix(1,0,0,-1,0,279.71583)" stroke-width=".8" stroke-linecap="butt" stroke-linejoin="round" fill="none" stroke="#000000" d="M649.40377 45.73125V42.23125"/>
<text xml:space="preserve" transform="matrix(1 0 -0 1 641.90377 251.5002)" font-size="15" font-family="TeXGyreTermes"><tspan y="0" x="0 7.5">34</tspan></text>
<path transform="matrix(1,0,0,-1,0,279.71583)" d="M668.00137 45.73125V42.23125"/>
<path transform="matrix(1,0,0,-1,0,279.71583)" stroke-width=".8" stroke-linecap="butt" stroke-linejoin="round" fill="none" stroke="#000000" d="M668.00137 45.73125V42.23125"/>
<text xml:space="preserve" transform="matrix(1 0 -0 1 660.50137 251.5002)" font-size="15" font-family="TeXGyreTermes"><tspan y="0" x="0 7.5">35</tspan></text>
<text xml:space="preserve" transform="matrix(1 0 -0 1 362.24595 269.25019)" font-size="15" font-family="TeXGyreTermes"><tspan y="0" x="0 9.165 15.825001 23.325 29.985">Layer</tspan></text>
<path transform="matrix(1,0,0,-1,0,279.71583)" d="M54.465627 45.73125H50.965627"/>
<path transform="matrix(1,0,0,-1,0,279.71583)" stroke-width=".8" stroke-linecap="butt" stroke-linejoin="round" fill="none" stroke="#000000" d="M54.465627 45.73125H50.965627"/>
<text xml:space="preserve" transform="matrix(1 0 -0 1 39.965627 239.24239)" font-size="15" font-family="TeXGyreTermes"><tspan y="0" x="0">0</tspan></text>
<path transform="matrix(1,0,0,-1,0,279.71583)" d="M54.465627 73.4221H50.965627"/>
<path transform="matrix(1,0,0,-1,0,279.71583)" stroke-width=".8" stroke-linecap="butt" stroke-linejoin="round" fill="none" stroke="#000000" d="M54.465627 73.4221H50.965627"/>
<text xml:space="preserve" transform="matrix(1 0 -0 1 32.465627 211.55155)" font-size="15" font-family="TeXGyreTermes"><tspan y="0" x="0 7.5">2k</tspan></text>
<path transform="matrix(1,0,0,-1,0,279.71583)" d="M54.465627 101.11294H50.965627"/>
<path transform="matrix(1,0,0,-1,0,279.71583)" stroke-width=".8" stroke-linecap="butt" stroke-linejoin="round" fill="none" stroke="#000000" d="M54.465627 101.11294H50.965627"/>
<text xml:space="preserve" transform="matrix(1 0 -0 1 32.465627 183.86069)" font-size="15" font-family="TeXGyreTermes"><tspan y="0" x="0 7.5">4k</tspan></text>
<path transform="matrix(1,0,0,-1,0,279.71583)" d="M54.465627 128.80377H50.965627"/>
<path transform="matrix(1,0,0,-1,0,279.71583)" stroke-width=".8" stroke-linecap="butt" stroke-linejoin="round" fill="none" stroke="#000000" d="M54.465627 128.80377H50.965627"/>
<text xml:space="preserve" transform="matrix(1 0 -0 1 32.465627 156.16986)" font-size="15" font-family="TeXGyreTermes"><tspan y="0" x="0 7.5">6k</tspan></text>
<path transform="matrix(1,0,0,-1,0,279.71583)" d="M54.465627 156.49463H50.965627"/>
<path transform="matrix(1,0,0,-1,0,279.71583)" stroke-width=".8" stroke-linecap="butt" stroke-linejoin="round" fill="none" stroke="#000000" d="M54.465627 156.49463H50.965627"/>
<text xml:space="preserve" transform="matrix(1 0 -0 1 32.465627 128.479)" font-size="15" font-family="TeXGyreTermes"><tspan y="0" x="0 7.5">8k</tspan></text>
<path transform="matrix(1,0,0,-1,0,279.71583)" d="M54.465627 184.18547H50.965627"/>
<path transform="matrix(1,0,0,-1,0,279.71583)" stroke-width=".8" stroke-linecap="butt" stroke-linejoin="round" fill="none" stroke="#000000" d="M54.465627 184.18547H50.965627"/>
<text xml:space="preserve" transform="matrix(1 0 -0 1 24.965626 100.78816)" font-size="15" font-family="TeXGyreTermes"><tspan y="0" x="0 7.5 15">10k</tspan></text>
<path transform="matrix(1,0,0,-1,0,279.71583)" d="M54.465627 211.87631H50.965627"/>
<path transform="matrix(1,0,0,-1,0,279.71583)" stroke-width=".8" stroke-linecap="butt" stroke-linejoin="round" fill="none" stroke="#000000" d="M54.465627 211.87631H50.965627"/>
<text xml:space="preserve" transform="matrix(1 0 -0 1 24.965626 73.09732)" font-size="15" font-family="TeXGyreTermes"><tspan y="0" x="0 7.5 15">12k</tspan></text>
<path transform="matrix(1,0,0,-1,0,279.71583)" d="M54.465627 239.56716H50.965627"/>
<path transform="matrix(1,0,0,-1,0,279.71583)" stroke-width=".8" stroke-linecap="butt" stroke-linejoin="round" fill="none" stroke="#000000" d="M54.465627 239.56716H50.965627"/>
<text xml:space="preserve" transform="matrix(1 0 -0 1 24.965626 45.40648)" font-size="15" font-family="TeXGyreTermes"><tspan y="0" x="0 7.5 15">14k</tspan></text>
<path transform="matrix(1,0,0,-1,0,279.71583)" d="M54.465627 267.258H50.965627"/>
<path transform="matrix(1,0,0,-1,0,279.71583)" stroke-width=".8" stroke-linecap="butt" stroke-linejoin="round" fill="none" stroke="#000000" d="M54.465627 267.258H50.965627"/>
<text xml:space="preserve" transform="matrix(1 0 -0 1 24.965626 17.715638)" font-size="15" font-family="TeXGyreTermes"><tspan y="0" x="0 7.5 15">16k</tspan></text>
<text xml:space="preserve" transform="matrix(0 -1 1 0 17.7 171.74535)" font-size="15" font-family="TeXGyreTermes"><tspan y="0" x="0 8.340001 13.335001 19.995 27.495 34.995004 41.655004 49.155004 55.815004 63.315004 67.065 72.9 79.560009 87.060009 92.05501">Frequency score</tspan></text>
<path transform="matrix(1,0,0,-1,0,279.71583)" stroke-width=".8" stroke-linecap="square" stroke-miterlimit="10" stroke-linejoin="miter" fill="none" stroke="#000000" d="M54.465627 45.73125V268.92845"/>
<path transform="matrix(1,0,0,-1,0,279.71583)" stroke-width=".8" stroke-linecap="square" stroke-miterlimit="10" stroke-linejoin="miter" fill="none" stroke="#000000" d="M705.0106 45.73125V268.92845"/>
<path transform="matrix(1,0,0,-1,0,279.71583)" stroke-width=".8" stroke-linecap="square" stroke-miterlimit="10" stroke-linejoin="miter" fill="none" stroke="#000000" d="M54.465627 45.73125H705.0106"/>
<path transform="matrix(1,0,0,-1,0,279.71583)" stroke-width=".8" stroke-linecap="square" stroke-miterlimit="10" stroke-linejoin="miter" fill="none" stroke="#000000" d="M54.465627 268.92845H705.0106"/>
<g clip-path="url(#clip_1)">
<path transform="matrix(1,0,0,-1,0,279.71583)" d="M84.03585 45.73125H91.4749V66.139408H84.03585Z" fill="#ea8677"/>
</g>
<g clip-path="url(#clip_2)">
<path transform="matrix(1,0,0,-1,0,279.71583)" d="M102.63348 45.73125H110.07253V52.57089H102.63348Z" fill="#ea8677"/>
</g>
<g clip-path="url(#clip_3)">
<path transform="matrix(1,0,0,-1,0,279.71583)" d="M121.23111 45.73125H128.67015V179.78263H121.23111Z" fill="#ea8677"/>
</g>
<g clip-path="url(#clip_4)">
<path transform="matrix(1,0,0,-1,0,279.71583)" d="M139.82874 45.73125H147.26779V193.93265H139.82874Z" fill="#ea8677"/>
</g>
<g clip-path="url(#clip_5)">
<path transform="matrix(1,0,0,-1,0,279.71583)" d="M158.42636 45.73125H165.86542V58.98132H158.42636Z" fill="#ea8677"/>
</g>
<g clip-path="url(#clip_6)">
<path transform="matrix(1,0,0,-1,0,279.71583)" d="M177.02399 45.73125H184.46305V188.9206H177.02399Z" fill="#ea8677"/>
</g>
<g clip-path="url(#clip_7)">
<path transform="matrix(1,0,0,-1,0,279.71583)" d="M195.62162 45.73125H203.06067V143.06456H195.62162Z" fill="#ea8677"/>
</g>
<g clip-path="url(#clip_8)">
<path transform="matrix(1,0,0,-1,0,279.71583)" d="M214.21924 45.73125H221.6583V235.70429H214.21924Z" fill="#ea8677"/>
</g>
<g clip-path="url(#clip_9)">
<path transform="matrix(1,0,0,-1,0,279.71583)" d="M232.81687 45.73125H240.25592V160.12212H232.81687Z" fill="#ea8677"/>
</g>
<g clip-path="url(#clip_10)">
<path transform="matrix(1,0,0,-1,0,279.71583)" d="M251.41449 45.73125H258.85356V134.99268H251.41449Z" fill="#ea8677"/>
</g>
<g clip-path="url(#clip_11)">
<path transform="matrix(1,0,0,-1,0,279.71583)" d="M270.01213 45.73125H277.45118V124.95475H270.01213Z" fill="#ea8677"/>
</g>
<g clip-path="url(#clip_12)">
<path transform="matrix(1,0,0,-1,0,279.71583)" d="M288.60975 45.73125H296.0488V106.31882H288.60975Z" fill="#ea8677"/>
</g>
<g clip-path="url(#clip_13)">
<path transform="matrix(1,0,0,-1,0,279.71583)" d="M307.20738 45.73125H314.64643V69.04694H307.20738Z" fill="#ea8677"/>
</g>
<g clip-path="url(#clip_14)">
<path transform="matrix(1,0,0,-1,0,279.71583)" d="M325.805 45.73125H333.24406V51.532484H325.805Z" fill="#ea8677"/>
</g>
<g clip-path="url(#clip_15)">
<path transform="matrix(1,0,0,-1,0,279.71583)" d="M344.40263 45.73125H351.84169V100.12991H344.40263Z" fill="#ea8677"/>
</g>
<g clip-path="url(#clip_16)">
<path transform="matrix(1,0,0,-1,0,279.71583)" d="M363.00028 45.73125H370.4393V70.0715H363.00028Z" fill="#ea8677"/>
</g>
<g clip-path="url(#clip_17)">
<path transform="matrix(1,0,0,-1,0,279.71583)" d="M381.5979 45.73125H389.03694V133.80197H381.5979Z" fill="#ea8677"/>
</g>
<g clip-path="url(#clip_18)">
<path transform="matrix(1,0,0,-1,0,279.71583)" d="M400.19554 45.73125H407.63456V67.094738H400.19554Z" fill="#ea8677"/>
</g>
<g clip-path="url(#clip_19)">
<path transform="matrix(1,0,0,-1,0,279.71583)" d="M418.79316 45.73125H426.2322V46.24353H418.79316Z" fill="#ea8677"/>
</g>
<g clip-path="url(#clip_20)">
<path transform="matrix(1,0,0,-1,0,279.71583)" d="M437.39079 45.73125H444.82984V46.00816H437.39079Z" fill="#ea8677"/>
</g>
<g clip-path="url(#clip_21)">
<path transform="matrix(1,0,0,-1,0,279.71583)" d="M455.9884 45.73125H463.42747V144.35219H455.9884Z" fill="#ea8677"/>
</g>
<g clip-path="url(#clip_22)">
<path transform="matrix(1,0,0,-1,0,279.71583)" d="M474.58604 45.73125H482.0251V46.354295H474.58604Z" fill="#ea8677"/>
</g>
<g clip-path="url(#clip_23)">
<path transform="matrix(1,0,0,-1,0,279.71583)" d="M493.18367 45.73125H500.6227V68.74234H493.18367Z" fill="#ea8677"/>
</g>
<g clip-path="url(#clip_24)">
<path transform="matrix(1,0,0,-1,0,279.71583)" d="M511.78129 45.73125H519.22036V51.6294H511.78129Z" fill="#ea8677"/>
</g>
<g clip-path="url(#clip_25)">
<path transform="matrix(1,0,0,-1,0,279.71583)" d="M530.3789 45.73125H537.81796V81.23091H530.3789Z" fill="#ea8677"/>
</g>
<g clip-path="url(#clip_26)">
<path transform="matrix(1,0,0,-1,0,279.71583)" d="M548.97659 45.73125H556.4156V51.767854H548.97659Z" fill="#ea8677"/>
</g>
<g clip-path="url(#clip_27)">
<path transform="matrix(1,0,0,-1,0,279.71583)" d="M567.57418 45.73125H575.0132V164.77419H567.57418Z" fill="#ea8677"/>
</g>
<g clip-path="url(#clip_28)">
<path transform="matrix(1,0,0,-1,0,279.71583)" d="M586.1718 45.73125H593.61087V59.507444H586.1718Z" fill="#ea8677"/>
</g>
<g clip-path="url(#clip_29)">
<path transform="matrix(1,0,0,-1,0,279.71583)" d="M604.7694 45.73125H612.20846V65.72404H604.7694Z" fill="#ea8677"/>
</g>
<g clip-path="url(#clip_30)">
<path transform="matrix(1,0,0,-1,0,279.71583)" d="M623.36709 45.73125H630.8061V53.152399H623.36709Z" fill="#ea8677"/>
</g>
<g clip-path="url(#clip_31)">
<path transform="matrix(1,0,0,-1,0,279.71583)" d="M641.96469 45.73125H649.40377V75.18046H641.96469Z" fill="#ea8677"/>
</g>
<g clip-path="url(#clip_32)">
<path transform="matrix(1,0,0,-1,0,279.71583)" d="M660.5623 45.73125H668.00137V70.6807H660.5623Z" fill="#ea8677"/>
</g>
<g clip-path="url(#clip_33)">
<path transform="matrix(1,0,0,-1,0,279.71583)" d="M91.4749 45.73125H98.913959V83.363109H91.4749Z" fill="#b6d7e4"/>
</g>
<g clip-path="url(#clip_34)">
<path transform="matrix(1,0,0,-1,0,279.71583)" d="M110.07253 45.73125H117.51158V49.63566H110.07253Z" fill="#b6d7e4"/>
</g>
<g clip-path="url(#clip_35)">
<path transform="matrix(1,0,0,-1,0,279.71583)" d="M128.67015 45.73125H136.1092V122.697948H128.67015Z" fill="#b6d7e4"/>
</g>
<g clip-path="url(#clip_36)">
<path transform="matrix(1,0,0,-1,0,279.71583)" d="M147.26779 45.73125H154.70684V71.49758H147.26779Z" fill="#b6d7e4"/>
</g>
<g clip-path="url(#clip_37)">
<path transform="matrix(1,0,0,-1,0,279.71583)" d="M165.86542 45.73125H173.30446V138.08022H165.86542Z" fill="#b6d7e4"/>
</g>
<g clip-path="url(#clip_38)">
<path transform="matrix(1,0,0,-1,0,279.71583)" d="M184.46305 45.73125H191.90209V151.93949H184.46305Z" fill="#b6d7e4"/>
</g>
<g clip-path="url(#clip_39)">
<path transform="matrix(1,0,0,-1,0,279.71583)" d="M203.06067 45.73125H210.49971V108.82484H203.06067Z" fill="#b6d7e4"/>
</g>
<g clip-path="url(#clip_40)">
<path transform="matrix(1,0,0,-1,0,279.71583)" d="M221.6583 45.73125H229.09735V201.89376H221.6583Z" fill="#b6d7e4"/>
</g>
<g clip-path="url(#clip_41)">
<path transform="matrix(1,0,0,-1,0,279.71583)" d="M240.25592 45.73125H247.69498V140.03241H240.25592Z" fill="#b6d7e4"/>
</g>
<g clip-path="url(#clip_42)">
<path transform="matrix(1,0,0,-1,0,279.71583)" d="M258.85356 45.73125H266.2926V116.4952H258.85356Z" fill="#b6d7e4"/>
</g>
<g clip-path="url(#clip_43)">
<path transform="matrix(1,0,0,-1,0,279.71583)" d="M277.45118 45.73125H284.89024V118.07358H277.45118Z" fill="#b6d7e4"/>
</g>
<g clip-path="url(#clip_44)">
<path transform="matrix(1,0,0,-1,0,279.71583)" d="M296.0488 45.73125H303.48786V97.52697H296.0488Z" fill="#b6d7e4"/>
</g>
<g clip-path="url(#clip_45)">
<path transform="matrix(1,0,0,-1,0,279.71583)" d="M314.64643 45.73125H322.08549V57.306024H314.64643Z" fill="#b6d7e4"/>
</g>
<g clip-path="url(#clip_46)">
<path transform="matrix(1,0,0,-1,0,279.71583)" d="M333.24406 45.73125H340.6831V58.842866H333.24406Z" fill="#b6d7e4"/>
</g>
<g clip-path="url(#clip_47)">
<path transform="matrix(1,0,0,-1,0,279.71583)" d="M351.84169 45.73125H359.28074V107.19108H351.84169Z" fill="#b6d7e4"/>
</g>
<g clip-path="url(#clip_48)">
<path transform="matrix(1,0,0,-1,0,279.71583)" d="M370.4393 45.73125H377.87837V101.27908H370.4393Z" fill="#b6d7e4"/>
</g>
<g clip-path="url(#clip_49)">
<path transform="matrix(1,0,0,-1,0,279.71583)" d="M389.03694 45.73125H396.47599V215.69765H389.03694Z" fill="#b6d7e4"/>
</g>
<g clip-path="url(#clip_50)">
<path transform="matrix(1,0,0,-1,0,279.71583)" d="M407.63456 45.73125H415.0736V65.11484H407.63456Z" fill="#b6d7e4"/>
</g>
<g clip-path="url(#clip_51)">
<path transform="matrix(1,0,0,-1,0,279.71583)" d="M426.2322 45.73125H433.67124V50.244859H426.2322Z" fill="#b6d7e4"/>
</g>
<g clip-path="url(#clip_52)">
<path transform="matrix(1,0,0,-1,0,279.71583)" d="M444.82984 45.73125H452.26887V62.71958H444.82984Z" fill="#b6d7e4"/>
</g>
<g clip-path="url(#clip_53)">
<path transform="matrix(1,0,0,-1,0,279.71583)" d="M463.42747 45.73125H470.8665V72.2037H463.42747Z" fill="#b6d7e4"/>
</g>
<g clip-path="url(#clip_54)">
<path transform="matrix(1,0,0,-1,0,279.71583)" d="M482.0251 45.73125H489.4641V54.218496H482.0251Z" fill="#b6d7e4"/>
</g>
<g clip-path="url(#clip_55)">
<path transform="matrix(1,0,0,-1,0,279.71583)" d="M500.6227 45.73125H508.06178V72.97904H500.6227Z" fill="#b6d7e4"/>
</g>
<g clip-path="url(#clip_56)">
<path transform="matrix(1,0,0,-1,0,279.71583)" d="M519.22036 45.73125H526.65939V55.2569H519.22036Z" fill="#b6d7e4"/>
</g>
<g clip-path="url(#clip_57)">
<path transform="matrix(1,0,0,-1,0,279.71583)" d="M537.81796 45.73125H545.257V93.92716H537.81796Z" fill="#b6d7e4"/>
</g>
<g clip-path="url(#clip_58)">
<path transform="matrix(1,0,0,-1,0,279.71583)" d="M556.4156 45.73125H563.8546V67.759319H556.4156Z" fill="#b6d7e4"/>
</g>
<g clip-path="url(#clip_59)">
<path transform="matrix(1,0,0,-1,0,279.71583)" d="M575.0132 45.73125H582.4523V258.30003H575.0132Z" fill="#b6d7e4"/>
</g>
<g clip-path="url(#clip_60)">
<path transform="matrix(1,0,0,-1,0,279.71583)" d="M593.61087 45.73125H601.04989V83.37695H593.61087Z" fill="#b6d7e4"/>
</g>
<g clip-path="url(#clip_61)">
<path transform="matrix(1,0,0,-1,0,279.71583)" d="M612.20846 45.73125H619.6475V72.45291H612.20846Z" fill="#b6d7e4"/>
</g>
<g clip-path="url(#clip_62)">
<path transform="matrix(1,0,0,-1,0,279.71583)" d="M630.8061 45.73125H638.2451V99.75609H630.8061Z" fill="#b6d7e4"/>
</g>
<g clip-path="url(#clip_63)">
<path transform="matrix(1,0,0,-1,0,279.71583)" d="M649.40377 45.73125H656.8428V63.48108H649.40377Z" fill="#b6d7e4"/>
</g>
<g clip-path="url(#clip_64)">
<path transform="matrix(1,0,0,-1,0,279.71583)" d="M668.00137 45.73125H675.44039V49.580278H668.00137Z" fill="#b6d7e4"/>
</g>
<g>
<path transform="matrix(1,0,0,-1,0,279.71583)" d="M304.03813 223.32845H455.4381C457.03813 223.32845 457.83815 224.12845 457.83815 225.72844V260.52845C457.83815 262.12846 457.03813 262.92845 455.4381 262.92845H304.03813C302.4381 262.92845 301.63813 262.12846 301.63813 260.52845V225.72844C301.63813 224.12845 302.4381 223.32845 304.03813 223.32845Z" fill="#ffffff" fill-opacity=".8"/>
<path transform="matrix(1,0,0,-1,0,279.71583)" stroke-width="1" stroke-linecap="butt" stroke-miterlimit="10" stroke-linejoin="miter" fill="none" stroke="#cccccc" stroke-opacity=".8" d="M304.03813 223.32845H455.4381C457.03813 223.32845 457.83815 224.12845 457.83815 225.72844V260.52845C457.83815 262.12846 457.03813 262.92845 455.4381 262.92845H304.03813C302.4381 262.92845 301.63813 262.12846 301.63813 260.52845V225.72844C301.63813 224.12845 302.4381 223.32845 304.03813 223.32845Z"/>
</g>
<path transform="matrix(1,0,0,-1,0,279.71583)" d="M306.4381 248.73783H330.4381V257.13783H306.4381Z" fill="#ea8677"/>
<text xml:space="preserve" transform="matrix(1 0 -0 1 340.03813 30.977997)" font-size="12" font-family="TeXGyreTermes"><tspan y="-.666125" x="0 8.003983 14.003967 22.667954 26.66394 35.327928 38.663927 43.33191 48.659898 51.65988 56.327867 61.655855 67.65584 71.651828 76.97981">Row-wise score </tspan></text>
<text xml:space="preserve" transform="matrix(1 0 -0 1 340.03813 30.977997)" font-size="12" font-family="Cmmi10"><tspan y="-.666125" x="79.9798">C</tspan></text>
<text xml:space="preserve" transform="matrix(1 0 -0 1 340.03813 30.977997)" font-size="8.4" font-family="Cmr10"><tspan y="-5.2578127" x="89.967517">R</tspan></text>
<path transform="matrix(1,0,0,-1,0,279.71583)" d="M306.4381 230.73783H330.4381V239.13782H306.4381Z" fill="#b6d7e4"/>
<text xml:space="preserve" transform="matrix(1 0 -0 1 340.03813 48.977998)" font-size="12" font-family="TeXGyreTermes"><tspan y="-.4801875" x="0 8.003983 14.003967 17.339966 23.33995 32.675935 38.67592 42.671907 51.33589 54.67189 59.339876 64.66786 67.66785 72.33583 77.66382 83.6638 87.65979 92.98778">Column-wise score </tspan></text>
<text xml:space="preserve" transform="matrix(1 0 -0 1 340.03813 48.977998)" font-size="12" font-family="Cmmi10"><tspan y="-.4801875" x="95.98776">C</tspan></text>
<text xml:space="preserve" transform="matrix(1 0 -0 1 340.03813 48.977998)" font-size="8.4" font-family="Cmr10"><tspan y="-5.071875" x="105.97548">C</tspan></text>
</svg>
