<svg xmlns="http://www.w3.org/2000/svg" xmlns:xlink="http://www.w3.org/1999/xlink" xmlns:inkscape="http://www.inkscape.org/namespaces/inkscape" version="1.1" width="804.64468" height="282.00776" viewBox="0 0 804.64468 282.00776">
<defs>
<clipPath id="clip_1">
<path transform="matrix(1,0,0,-1,-23.82594,306.7194)" d="M23.82594 24.71163H828.4706V306.7194H23.82594Z" clip-rule="evenodd"/>
</clipPath>
<clipPath id="clip_2">
<path transform="matrix(1,0,0,-1,-23.82594,306.7194)" d="M92.79875 59.0875H822.015V238.26001H92.79875Z"/>
</clipPath>
<clipPath id="clip_3">
<path transform="matrix(1,0,0,-1,-23.82594,306.7194)" d="M92.79875 59.0875H822.015V238.26001H92.79875Z"/>
</clipPath>
<clipPath id="clip_4">
<path transform="matrix(1,0,0,-1,-23.82594,306.7194)" d="M92.79875 59.0875H822.015V238.26001H92.79875Z"/>
</clipPath>
<clipPath id="clip_5">
<path transform="matrix(1,0,0,-1,-23.82594,306.7194)" d="M92.79875 59.0875H822.015V238.26001H92.79875Z"/>
</clipPath>
<clipPath id="clip_6">
<path transform="matrix(1,0,0,-1,-23.82594,306.7194)" d="M92.79875 59.0875H822.015V238.26001H92.79875Z"/>
</clipPath>
<clipPath id="clip_7">
<path transform="matrix(1,0,0,-1,-23.82594,306.7194)" d="M92.79875 59.0875H822.015V238.26001H92.79875Z"/>
</clipPath>
<clipPath id="clip_8">
<path transform="matrix(1,0,0,-1,-23.82594,306.7194)" d="M92.79875 59.0875H822.015V238.26001H92.79875Z"/>
</clipPath>
<clipPath id="clip_9">
<path transform="matrix(1,0,0,-1,-23.82594,306.7194)" d="M92.79875 59.0875H822.015V238.26001H92.79875Z"/>
</clipPath>
<clipPath id="clip_10">
<path transform="matrix(1,0,0,-1,-23.82594,306.7194)" d="M92.79875 59.0875H822.015V238.26001H92.79875Z"/>
</clipPath>
<clipPath id="clip_11">
<path transform="matrix(1,0,0,-1,-23.82594,306.7194)" d="M92.79875 59.0875H822.015V238.26001H92.79875Z"/>
</clipPath>
<clipPath id="clip_12">
<path transform="matrix(1,0,0,-1,-23.82594,306.7194)" d="M92.79875 59.0875H822.015V238.26001H92.79875Z"/>
</clipPath>
<clipPath id="clip_13">
<path transform="matrix(1,0,0,-1,-23.82594,306.7194)" d="M92.79875 59.0875H822.015V238.26001H92.79875Z"/>
</clipPath>
<clipPath id="clip_14">
<path transform="matrix(1,0,0,-1,-23.82594,306.7194)" d="M92.79875 59.0875H822.015V238.26001H92.79875Z"/>
</clipPath>
<clipPath id="clip_15">
<path transform="matrix(1,0,0,-1,-23.82594,306.7194)" d="M92.79875 59.0875H822.015V238.26001H92.79875Z"/>
</clipPath>
<clipPath id="clip_16">
<path transform="matrix(1,0,0,-1,-23.82594,306.7194)" d="M92.79875 59.0875H822.015V238.26001H92.79875Z"/>
</clipPath>
<clipPath id="clip_17">
<path transform="matrix(1,0,0,-1,-23.82594,306.7194)" d="M92.79875 59.0875H822.015V238.26001H92.79875Z"/>
</clipPath>
<clipPath id="clip_18">
<path transform="matrix(1,0,0,-1,-23.82594,306.7194)" d="M92.79875 59.0875H822.015V238.26001H92.79875Z"/>
</clipPath>
<clipPath id="clip_19">
<path transform="matrix(1,0,0,-1,-23.82594,306.7194)" d="M92.79875 59.0875H822.015V238.26001H92.79875Z"/>
</clipPath>
</defs>
<g clip-path="url(#clip_1)">
<path transform="matrix(1,0,0,-1,-23.82594,306.7194)" d="M0 0H864V360H0Z" fill="#ffffff"/>
<path transform="matrix(1,0,0,-1,-23.82594,306.7194)" d="M92.79875 59.0875H822.015V238.26H92.79875Z" fill="#ffffff"/>
<path transform="matrix(1,0,0,-1,-23.82594,306.7194)" d="M207.24694 59.0875V55.5875"/>
<path transform="matrix(1,0,0,-1,-23.82594,306.7194)" stroke-width=".8" stroke-linecap="butt" stroke-linejoin="round" fill="none" stroke="#000000" d="M207.24694 59.0875V55.5875"/>
<text xml:space="preserve" transform="matrix(1 0 -0 1 136.75693 273.83503)" font-size="28" font-family="TeXGyreTermes"><tspan y="0" x="0 26.432002 34.216005 48.216005 56.000005 73.108">WikiTQ</tspan></text>
<path transform="matrix(1,0,0,-1,-23.82594,306.7194)" d="M457.40687 59.0875V55.5875"/>
<path transform="matrix(1,0,0,-1,-23.82594,306.7194)" stroke-width=".8" stroke-linecap="butt" stroke-linejoin="round" fill="none" stroke="#000000" d="M457.40687 59.0875V55.5875"/>
<text xml:space="preserve" transform="matrix(1 0 -0 1 397.8075 273.83503)" font-size="28" font-family="TeXGyreTermes"><tspan y="0" x="0 20.216002 28.000002 45.108 57.54">HiTab</tspan></text>
<path transform="matrix(1,0,0,-1,-23.82594,306.7194)" d="M707.56686 59.0875V55.5875"/>
<path transform="matrix(1,0,0,-1,-23.82594,306.7194)" stroke-width=".8" stroke-linecap="butt" stroke-linejoin="round" fill="none" stroke="#000000" d="M707.56686 59.0875V55.5875"/>
<text xml:space="preserve" transform="matrix(1 0 -0 1 637.8581 273.83503)" font-size="28" font-family="TeXGyreTermes"><tspan y="0" x="0 17.108 29.54 43.54 59.108 71.54 83.972">TabFact</tspan></text>
<g clip-path="url(#clip_2)">
<path transform="matrix(1,0,0,-1,-23.82594,306.7194)" stroke-width="1" stroke-linecap="butt" stroke-dasharray="1,1.65" stroke-linejoin="round" fill="none" stroke="#b0b0b0" d="M92.79875 59.0875H822.015"/>
</g>
<path transform="matrix(1,0,0,-1,-23.82594,306.7194)" d="M92.79875 59.0875H89.29875"/>
<path transform="matrix(1,0,0,-1,-23.82594,306.7194)" stroke-width=".8" stroke-linecap="butt" stroke-linejoin="round" fill="none" stroke="#000000" d="M92.79875 59.0875H89.29875"/>
<text xml:space="preserve" transform="matrix(1 0 -0 1 36.972814 256.2569)" font-size="25" font-family="TeXGyreTermes"><tspan y="0" x="0 12.5">40</tspan></text>
<g clip-path="url(#clip_3)">
<path transform="matrix(1,0,0,-1,-23.82594,306.7194)" stroke-width="1" stroke-linecap="butt" stroke-dasharray="1,1.65" stroke-linejoin="round" fill="none" stroke="#b0b0b0" d="M92.79875 130.7565H822.015"/>
</g>
<path transform="matrix(1,0,0,-1,-23.82594,306.7194)" d="M92.79875 130.7565H89.29875"/>
<path transform="matrix(1,0,0,-1,-23.82594,306.7194)" stroke-width=".8" stroke-linecap="butt" stroke-linejoin="round" fill="none" stroke="#000000" d="M92.79875 130.7565H89.29875"/>
<text xml:space="preserve" transform="matrix(1 0 -0 1 36.972814 184.58789)" font-size="25" font-family="TeXGyreTermes"><tspan y="0" x="0 12.5">60</tspan></text>
<g clip-path="url(#clip_4)">
<path transform="matrix(1,0,0,-1,-23.82594,306.7194)" stroke-width="1" stroke-linecap="butt" stroke-dasharray="1,1.65" stroke-linejoin="round" fill="none" stroke="#b0b0b0" d="M92.79875 202.4255H822.015"/>
</g>
<path transform="matrix(1,0,0,-1,-23.82594,306.7194)" d="M92.79875 202.4255H89.29875"/>
<path transform="matrix(1,0,0,-1,-23.82594,306.7194)" stroke-width=".8" stroke-linecap="butt" stroke-linejoin="round" fill="none" stroke="#000000" d="M92.79875 202.4255H89.29875"/>
<text xml:space="preserve" transform="matrix(1 0 -0 1 36.972814 112.918888)" font-size="25" font-family="TeXGyreTermes"><tspan y="0" x="0 12.5">80</tspan></text>
<text xml:space="preserve" transform="matrix(0 -1 1 0 26.004063 219.3347)" font-size="32" font-family="TeXGyreTermes"><tspan y="0" x="0 23.104002 37.312005 51.520006 67.520008 78.176 92.384 106.592">Accuracy</tspan></text>
<g clip-path="url(#clip_5)">
<path transform="matrix(1,0,0,-1,-23.82594,306.7194)" d="M125.94495-84.2505H158.46573V85.99921H125.94495Z" fill="#9e9e9e"/>
</g>
<g clip-path="url(#clip_6)">
<path transform="matrix(1,0,0,-1,-23.82594,306.7194)" d="M376.1049-84.2505H408.62568V99.22214H376.1049Z" fill="#9e9e9e"/>
</g>
<g clip-path="url(#clip_7)">
<path transform="matrix(1,0,0,-1,-23.82594,306.7194)" d="M626.26486-84.2505H658.78567V178.77474H626.26486Z" fill="#9e9e9e"/>
</g>
<g clip-path="url(#clip_8)">
<path transform="matrix(1,0,0,-1,-23.82594,306.7194)" d="M158.46573-84.2505H190.98653V150.2863H158.46573Z" fill="#f2cf7a"/>
</g>
<g clip-path="url(#clip_9)">
<path transform="matrix(1,0,0,-1,-23.82594,306.7194)" d="M408.62568-84.2505H441.14649V166.94934H408.62568Z" fill="#f2cf7a"/>
</g>
<g clip-path="url(#clip_10)">
<path transform="matrix(1,0,0,-1,-23.82594,306.7194)" d="M658.78567-84.2505H691.3064V219.8769H658.78567Z" fill="#f2cf7a"/>
</g>
<g clip-path="url(#clip_11)">
<path transform="matrix(1,0,0,-1,-23.82594,306.7194)" d="M190.98653-84.2505H223.50733V146.05783H190.98653Z" fill="#8fb1cf"/>
</g>
<g clip-path="url(#clip_12)">
<path transform="matrix(1,0,0,-1,-23.82594,306.7194)" d="M441.14649-84.2505H473.66728V162.32669H441.14649Z" fill="#8fb1cf"/>
</g>
<g clip-path="url(#clip_13)">
<path transform="matrix(1,0,0,-1,-23.82594,306.7194)" d="M691.3064-84.2505H723.8272V152.07804H691.3064Z" fill="#8fb1cf"/>
</g>
<g clip-path="url(#clip_14)">
<path transform="matrix(1,0,0,-1,-23.82594,306.7194)" d="M223.50733-84.2505H256.0281V145.87866H223.50733Z" fill="#9fd0c8"/>
</g>
<g clip-path="url(#clip_15)">
<path transform="matrix(1,0,0,-1,-23.82594,306.7194)" d="M473.66728-84.2505H506.18809V163.93924H473.66728Z" fill="#9fd0c8"/>
</g>
<g clip-path="url(#clip_16)">
<path transform="matrix(1,0,0,-1,-23.82594,306.7194)" d="M723.8272-84.2505H756.348V221.45362H723.8272Z" fill="#9fd0c8"/>
</g>
<g clip-path="url(#clip_17)">
<path transform="matrix(1,0,0,-1,-23.82594,306.7194)" d="M256.0281-84.2505H288.54893V150.93132H256.0281Z" fill="#e6ddd4"/>
</g>
<g clip-path="url(#clip_18)">
<path transform="matrix(1,0,0,-1,-23.82594,306.7194)" d="M506.18809-84.2505H538.70889V161.21582H506.18809Z" fill="#e6ddd4"/>
</g>
<g clip-path="url(#clip_19)">
<path transform="matrix(1,0,0,-1,-23.82594,306.7194)" d="M756.348-84.2505H788.86886V219.84107H756.348Z" fill="#e6ddd4"/>
</g>
<path transform="matrix(1,0,0,-1,-23.82594,306.7194)" stroke-width=".8" stroke-linecap="square" stroke-miterlimit="10" stroke-linejoin="miter" fill="none" stroke="#000000" d="M92.79875 59.0875V238.26"/>
<path transform="matrix(1,0,0,-1,-23.82594,306.7194)" stroke-width=".8" stroke-linecap="square" stroke-miterlimit="10" stroke-linejoin="miter" fill="none" stroke="#000000" d="M822.015 59.0875V238.26"/>
<path transform="matrix(1,0,0,-1,-23.82594,306.7194)" stroke-width=".8" stroke-linecap="square" stroke-miterlimit="10" stroke-linejoin="miter" fill="none" stroke="#000000" d="M92.79875 59.0875H822.015"/>
<path transform="matrix(1,0,0,-1,-23.82594,306.7194)" stroke-width=".8" stroke-linecap="square" stroke-miterlimit="10" stroke-linejoin="miter" fill="none" stroke="#000000" d="M92.79875 238.26H822.015"/>
<path transform="matrix(1,0,0,-1,-23.82594,306.7194)" d="M187.05207 280.4876H235.05207V297.28764H187.05207Z" fill="#9e9e9e"/>
<text xml:space="preserve" transform="matrix(1 0 -0 1 230.42612 26.231781)" font-size="24" font-family="TeXGyreTermes"><tspan y="0" x="0 17.328001 34.656003 45.312005 57.312005 69.312007 75.312007 87.312007 95.304 107.304">Qwen2.5-3B</tspan></text>
<path transform="matrix(1,0,0,-1,-23.82594,306.7194)" d="M187.05207 246.4845H235.05207V263.2845H187.05207Z" fill="#f2cf7a"/>
<text xml:space="preserve" transform="matrix(1 0 -0 1 230.42612 60.234895)" font-size="24" font-family="TeXGyreTermes"><tspan y="0" x="0 17.328001 34.656003 45.312005 57.312005 69.312007 75.312007 87.312007 95.304 107.304 123.312007 129.31201 137.30402 150.64801 163.992 178.656">Qwen2.5-3B (SFT)</tspan></text>
<path transform="matrix(1,0,0,-1,-23.82594,306.7194)" d="M488.93959 280.4876H536.9396V297.28764H488.93959Z" fill="#8fb1cf"/>
<text xml:space="preserve" transform="matrix(1 0 -0 1 532.31369 26.231781)" font-size="24" font-family="TeXGyreTermes"><tspan y="0" x="0 17.328001 27.984002 45.312005 59.976007">HeGTa</tspan></text>
<path transform="matrix(1,0,0,-1,-23.82594,306.7194)" d="M488.93959 246.4845H536.9396V263.2845H488.93959Z" fill="#9fd0c8"/>
<text xml:space="preserve" transform="matrix(1 0 -0 1 532.31369 60.234895)" font-size="24" font-family="TeXGyreTermes"><tspan y="0" x="0 14.664 29.328 39.984 53.328004">LLaSA</tspan></text>
<path transform="matrix(1,0,0,-1,-23.82594,306.7194)" d="M674.81149 280.4876H722.81149V297.28764H674.81149Z" fill="#e6ddd4"/>
<text xml:space="preserve" transform="matrix(1 0 -0 1 718.1855 26.231781)" font-size="24" font-family="TeXGyreTermes"><tspan y="0" x="0 14.664 25.32 46.656003">TaMo</tspan></text>
</g>
</svg>
