<?xml version="1.0" encoding="UTF-8"?>
<svg xmlns="http://www.w3.org/2000/svg" width="1812" height="320" viewBox="0 0 1812 320" version="1.1">
  <title>Vectorized table</title>
  <rect width="100%" height="100%" fill="#ffffff"/>
  <path d="M 18 32 L 18 38 L 1785 38 L 1785 32 Z
M 74 71 L 66 75 L 63 78 L 59 85 L 58 92 L 57 93 L 58 104 L 63 114 L 68 118 L 75 121 L 88 121 L 98 116 L 102 111 L 104 107 L 105 100 L 106 99 L 105 87 L 101 79 L 94 73 L 89 71 L 84 71 L 83 70 Z
M 140 70 L 138 72 L 138 76 L 141 78 L 145 77 L 146 76 L 146 72 L 144 70 Z
M 197 70 L 195 72 L 195 76 L 198 78 L 202 77 L 203 76 L 203 72 L 201 70 Z
M 293 70 L 290 70 L 286 72 L 280 73 L 281 75 L 285 75 L 286 76 L 286 116 L 284 118 L 281 119 L 281 120 L 298 120 L 298 119 L 296 119 L 293 116 Z
M 399 70 L 396 75 L 396 77 L 388 94 L 388 96 L 385 101 L 385 103 L 382 108 L 382 110 L 377 118 L 375 118 L 374 120 L 389 120 L 388 118 L 386 118 L 384 116 L 386 109 L 389 105 L 406 105 L 408 107 L 411 114 L 411 117 L 410 118 L 407 118 L 406 120 L 425 120 L 425 118 L 423 118 L 420 115 L 417 109 L 417 107 L 413 100 L 413 98 L 410 93 L 410 91 L 406 84 L 406 82 L 403 77 L 403 75 L 401 71 Z
M 428 72 L 426 73 L 426 74 L 431 76 L 431 117 L 433 119 L 438 121 L 448 121 L 449 120 L 451 120 L 457 115 L 460 110 L 461 100 L 460 99 L 459 93 L 456 89 L 453 87 L 450 87 L 449 86 L 443 87 L 439 90 L 438 89 L 438 70 Z
M 477 70 L 474 70 L 473 71 L 470 71 L 469 72 L 464 73 L 465 75 L 468 75 L 470 77 L 470 116 L 468 118 L 464 119 L 464 120 L 482 120 L 482 119 L 480 119 L 477 117 Z
M 858 70 L 855 70 L 854 71 L 846 73 L 846 75 L 850 75 L 851 76 L 851 117 L 848 119 L 846 119 L 846 120 L 864 120 L 864 119 L 862 119 L 858 116 Z
M 884 73 L 884 75 L 887 75 L 888 76 L 888 117 L 884 119 L 884 120 L 900 120 L 900 119 L 897 118 L 895 116 L 895 96 L 900 91 L 905 91 L 908 95 L 908 116 L 906 118 L 903 119 L 903 120 L 919 120 L 919 119 L 915 116 L 915 95 L 914 94 L 913 89 L 907 86 L 903 86 L 902 87 L 900 87 L 896 90 L 895 89 L 895 70 L 892 70 Z
M 1017 70 L 1014 70 L 1013 71 L 1005 73 L 1005 75 L 1009 75 L 1010 76 L 1010 87 L 1009 88 L 1005 86 L 1000 86 L 999 87 L 997 87 L 990 93 L 988 97 L 988 100 L 987 101 L 987 109 L 988 110 L 989 115 L 994 120 L 996 120 L 997 121 L 1005 121 L 1009 118 L 1010 119 L 1010 121 L 1012 121 L 1022 117 L 1021 116 L 1019 116 L 1017 114 Z
M 1150 70 L 1146 77 L 1146 79 L 1137 98 L 1135 105 L 1130 115 L 1126 118 L 1125 120 L 1140 120 L 1139 118 L 1137 118 L 1135 116 L 1136 111 L 1139 105 L 1157 105 L 1159 107 L 1159 109 L 1162 115 L 1162 117 L 1161 118 L 1158 118 L 1157 120 L 1176 120 L 1176 119 L 1170 114 L 1170 112 L 1162 96 L 1162 94 L 1155 80 L 1155 78 L 1152 73 L 1152 71 Z
M 1179 72 L 1177 73 L 1177 74 L 1178 75 L 1180 75 L 1182 77 L 1182 118 L 1189 121 L 1199 121 L 1205 118 L 1211 109 L 1211 105 L 1212 104 L 1212 102 L 1211 101 L 1211 96 L 1209 92 L 1205 88 L 1200 86 L 1193 87 L 1189 90 L 1188 89 L 1188 70 L 1186 70 L 1182 72 Z
M 1227 70 L 1215 73 L 1215 75 L 1219 75 L 1221 77 L 1221 115 L 1219 118 L 1215 119 L 1215 120 L 1233 120 L 1233 119 L 1229 118 L 1227 115 Z
M 1463 70 L 1452 73 L 1452 75 L 1455 75 L 1457 77 L 1457 87 L 1456 88 L 1452 86 L 1447 86 L 1442 88 L 1436 94 L 1436 96 L 1434 100 L 1434 111 L 1436 115 L 1443 121 L 1451 121 L 1452 120 L 1454 120 L 1456 118 L 1457 119 L 1457 121 L 1459 121 L 1460 120 L 1468 118 L 1468 116 L 1466 116 L 1463 113 Z
M 1582 73 L 1582 75 L 1585 75 L 1586 76 L 1586 116 L 1583 119 L 1581 119 L 1581 120 L 1598 120 L 1598 119 L 1596 119 L 1593 116 L 1593 95 L 1598 91 L 1603 91 L 1606 95 L 1606 116 L 1604 118 L 1601 119 L 1601 120 L 1617 120 L 1617 119 L 1613 117 L 1613 97 L 1612 96 L 1612 92 L 1611 90 L 1608 87 L 1606 87 L 1605 86 L 1598 87 L 1594 90 L 1593 89 L 1593 70 L 1590 70 Z
M 1714 70 L 1711 70 L 1710 71 L 1705 72 L 1702 74 L 1707 76 L 1707 87 L 1706 88 L 1703 86 L 1697 86 L 1696 87 L 1694 87 L 1689 91 L 1686 96 L 1686 98 L 1685 99 L 1685 104 L 1684 105 L 1685 106 L 1685 111 L 1687 116 L 1690 119 L 1694 121 L 1702 121 L 1705 119 L 1708 121 L 1710 121 L 1711 120 L 1716 119 L 1719 117 L 1719 116 L 1716 116 L 1714 114 Z
M 77 74 L 86 74 L 88 75 L 93 80 L 96 86 L 96 90 L 97 91 L 97 100 L 96 101 L 95 108 L 93 112 L 89 116 L 85 118 L 78 118 L 74 116 L 70 112 L 68 108 L 67 101 L 66 100 L 66 91 L 67 90 L 68 84 L 70 80 Z
M 527 77 L 517 88 L 517 90 L 520 90 L 521 91 L 521 116 L 525 121 L 531 121 L 533 120 L 537 116 L 537 115 L 535 114 L 532 117 L 530 117 L 528 115 L 528 91 L 529 90 L 535 90 L 535 87 L 529 87 L 528 86 L 528 78 Z
M 627 77 L 617 88 L 617 90 L 620 90 L 621 91 L 621 116 L 625 121 L 631 121 L 633 120 L 637 116 L 637 115 L 635 114 L 632 117 L 630 117 L 628 115 L 628 91 L 629 90 L 635 90 L 635 87 L 629 87 L 628 86 L 628 78 Z
M 741 77 L 736 84 L 731 88 L 731 90 L 734 90 L 735 91 L 735 115 L 736 116 L 736 118 L 739 121 L 745 121 L 747 120 L 751 116 L 751 115 L 750 114 L 748 116 L 745 117 L 742 114 L 742 91 L 743 90 L 749 90 L 749 87 L 743 87 L 742 86 L 742 78 Z
M 1278 77 L 1267 89 L 1272 91 L 1272 117 L 1273 119 L 1276 121 L 1282 121 L 1287 117 L 1287 114 L 1282 117 L 1279 115 L 1279 113 L 1278 112 L 1278 91 L 1279 90 L 1286 90 L 1286 87 L 1279 87 L 1278 86 Z
M 397 84 L 399 85 L 400 89 L 403 94 L 403 96 L 405 99 L 404 101 L 391 101 L 390 100 Z
M 1148 84 L 1150 85 L 1152 92 L 1155 97 L 1155 99 L 1156 100 L 1155 101 L 1142 101 L 1141 100 L 1143 96 L 1143 94 L 1145 91 L 1145 89 Z
M 108 90 L 109 92 L 112 92 L 113 93 L 113 117 L 108 119 L 108 120 L 126 120 L 126 119 L 124 119 L 120 116 L 120 96 L 125 91 L 128 94 L 131 94 L 133 92 L 138 92 L 139 93 L 139 116 L 136 119 L 133 119 L 133 120 L 151 120 L 151 119 L 149 119 L 146 116 L 146 86 L 144 86 L 141 88 L 139 88 L 134 90 L 132 87 L 130 86 L 127 86 L 123 88 L 121 91 L 120 90 L 120 86 L 113 88 L 110 90 Z
M 167 86 L 163 88 L 158 94 L 158 103 L 159 105 L 163 108 L 163 109 L 158 114 L 158 118 L 160 121 L 155 126 L 155 132 L 161 136 L 174 136 L 184 131 L 187 126 L 186 119 L 181 116 L 165 115 L 163 113 L 167 109 L 170 109 L 171 110 L 172 109 L 176 109 L 181 105 L 183 100 L 183 95 L 182 93 L 183 92 L 187 92 L 188 90 L 187 89 L 181 89 L 173 86 Z
M 203 86 L 201 86 L 198 88 L 191 90 L 191 92 L 195 92 L 196 93 L 196 116 L 193 119 L 190 119 L 190 120 L 208 120 L 208 119 L 206 119 L 203 116 Z
M 211 89 L 211 91 L 214 91 L 216 94 L 216 115 L 215 117 L 211 119 L 211 120 L 227 120 L 227 119 L 224 118 L 222 116 L 222 96 L 227 91 L 231 91 L 233 92 L 235 96 L 235 115 L 234 117 L 230 119 L 230 120 L 246 120 L 246 119 L 243 118 L 241 115 L 241 92 L 237 87 L 230 86 L 226 88 L 223 91 L 222 90 L 222 86 L 220 86 L 214 89 Z
M 253 89 L 251 92 L 251 97 L 256 98 L 258 95 L 257 92 L 260 89 L 265 89 L 267 91 L 268 98 L 260 102 L 256 103 L 251 107 L 249 112 L 250 118 L 254 121 L 261 121 L 267 117 L 270 121 L 276 121 L 279 118 L 279 115 L 278 116 L 275 116 L 274 115 L 274 93 L 273 92 L 273 90 L 271 88 L 266 86 L 261 86 Z
M 491 88 L 488 91 L 488 93 L 487 94 L 489 98 L 494 97 L 494 91 L 496 89 L 501 89 L 504 92 L 504 98 L 499 101 L 497 101 L 491 104 L 487 108 L 487 110 L 486 111 L 486 116 L 487 118 L 491 121 L 497 121 L 498 120 L 500 120 L 504 117 L 507 121 L 512 121 L 516 118 L 516 115 L 514 116 L 512 116 L 511 115 L 511 94 L 510 93 L 510 91 L 506 87 L 504 87 L 503 86 L 498 86 L 497 87 Z
M 551 86 L 544 89 L 540 94 L 540 96 L 538 100 L 538 109 L 539 110 L 540 115 L 545 120 L 547 120 L 548 121 L 556 121 L 557 120 L 559 120 L 565 115 L 568 108 L 566 108 L 561 114 L 556 115 L 555 116 L 550 114 L 546 110 L 544 105 L 544 101 L 545 100 L 566 100 L 566 95 L 565 94 L 565 92 L 561 88 L 556 86 Z
M 611 87 L 609 87 L 608 88 L 604 86 L 600 86 L 599 87 L 596 87 L 593 89 L 591 93 L 591 98 L 593 102 L 598 106 L 603 108 L 608 114 L 604 119 L 600 119 L 594 114 L 593 109 L 591 109 L 591 121 L 593 121 L 594 120 L 597 120 L 598 121 L 606 121 L 610 119 L 613 115 L 613 108 L 612 106 L 607 102 L 601 99 L 596 94 L 596 92 L 601 88 L 602 89 L 604 89 L 608 93 L 609 97 L 611 97 Z
M 637 90 L 637 92 L 640 92 L 642 94 L 642 116 L 640 118 L 637 119 L 637 120 L 655 120 L 655 119 L 652 119 L 649 116 L 649 95 L 652 92 L 654 92 L 657 94 L 660 94 L 662 89 L 664 89 L 666 92 L 666 115 L 667 116 L 667 118 L 669 120 L 671 120 L 672 121 L 678 121 L 684 117 L 685 118 L 685 121 L 687 121 L 688 120 L 696 118 L 696 116 L 693 116 L 692 115 L 692 87 L 680 87 L 680 89 L 683 89 L 685 91 L 685 112 L 680 116 L 676 116 L 672 111 L 672 87 L 660 87 L 659 86 L 655 86 L 650 90 L 649 89 L 649 87 L 647 86 L 644 88 Z
M 722 87 L 719 87 L 718 86 L 713 86 L 712 87 L 710 87 L 706 89 L 702 93 L 700 97 L 700 100 L 699 101 L 699 108 L 700 109 L 700 112 L 703 117 L 709 121 L 717 121 L 718 120 L 720 120 L 726 114 L 728 109 L 726 109 L 719 115 L 713 115 L 708 111 L 705 104 L 706 96 L 712 89 L 717 89 L 719 91 L 719 94 L 721 97 L 725 97 L 727 95 L 727 92 L 726 90 Z
M 812 88 L 809 86 L 806 86 L 800 91 L 799 90 L 799 86 L 788 90 L 788 92 L 791 92 L 793 95 L 793 114 L 791 118 L 787 119 L 786 118 L 786 116 L 783 116 L 782 115 L 782 87 L 770 87 L 770 89 L 773 89 L 775 91 L 775 112 L 770 116 L 766 116 L 762 111 L 762 87 L 751 87 L 751 88 L 752 89 L 754 89 L 756 92 L 756 115 L 757 116 L 757 118 L 759 120 L 761 120 L 762 121 L 768 121 L 774 117 L 775 118 L 775 121 L 777 121 L 784 118 L 786 118 L 787 120 L 805 120 L 805 119 L 801 118 L 799 115 L 799 97 L 803 92 L 810 94 L 812 92 Z
M 818 89 L 816 92 L 816 97 L 821 98 L 823 95 L 822 92 L 825 89 L 830 89 L 832 91 L 833 98 L 825 102 L 821 103 L 816 107 L 814 112 L 815 118 L 819 121 L 826 121 L 832 117 L 835 121 L 841 121 L 844 118 L 844 115 L 843 116 L 840 116 L 839 115 L 839 93 L 838 92 L 838 90 L 836 88 L 831 86 L 826 86 Z
M 934 86 L 929 88 L 923 95 L 923 97 L 922 98 L 922 111 L 923 112 L 923 114 L 927 119 L 931 121 L 940 121 L 944 119 L 949 114 L 951 110 L 951 108 L 949 108 L 949 109 L 942 115 L 940 115 L 939 116 L 938 115 L 935 115 L 932 113 L 929 109 L 928 102 L 927 101 L 928 100 L 950 100 L 950 97 L 947 90 L 945 88 L 940 86 Z
M 960 88 L 957 91 L 957 93 L 956 94 L 958 98 L 963 97 L 963 91 L 965 89 L 970 89 L 973 92 L 973 98 L 968 101 L 966 101 L 960 104 L 956 108 L 956 110 L 955 111 L 955 116 L 956 118 L 960 121 L 966 121 L 967 120 L 969 120 L 973 117 L 976 121 L 981 121 L 985 118 L 985 115 L 983 116 L 981 116 L 980 115 L 980 94 L 979 93 L 979 91 L 975 87 L 973 87 L 972 86 L 967 86 L 966 87 Z
M 1045 87 L 1034 86 L 1029 88 L 1026 92 L 1026 99 L 1027 101 L 1031 105 L 1039 109 L 1042 112 L 1042 116 L 1038 119 L 1034 119 L 1029 115 L 1028 110 L 1026 109 L 1026 121 L 1028 120 L 1031 120 L 1032 121 L 1041 121 L 1047 116 L 1048 114 L 1048 109 L 1047 107 L 1043 103 L 1037 100 L 1031 95 L 1031 91 L 1033 89 L 1035 89 L 1036 88 L 1037 89 L 1039 89 L 1042 92 L 1043 96 L 1045 97 Z
M 1240 89 L 1238 92 L 1238 96 L 1240 98 L 1243 98 L 1245 96 L 1245 91 L 1247 89 L 1252 89 L 1255 93 L 1255 98 L 1239 106 L 1237 109 L 1237 112 L 1236 113 L 1237 114 L 1237 117 L 1241 121 L 1248 121 L 1254 117 L 1257 121 L 1263 121 L 1267 118 L 1267 115 L 1263 116 L 1261 114 L 1261 92 L 1258 88 L 1253 86 L 1248 86 Z
M 1302 86 L 1301 87 L 1298 87 L 1292 92 L 1289 99 L 1289 110 L 1291 115 L 1296 120 L 1298 120 L 1299 121 L 1307 121 L 1313 118 L 1319 109 L 1317 108 L 1315 111 L 1310 115 L 1307 115 L 1306 116 L 1305 115 L 1302 115 L 1297 110 L 1295 105 L 1295 101 L 1296 100 L 1317 100 L 1316 93 L 1312 88 L 1307 86 Z
M 1362 87 L 1357 86 L 1351 91 L 1350 90 L 1350 86 L 1339 90 L 1339 92 L 1342 92 L 1344 95 L 1344 114 L 1343 115 L 1343 117 L 1338 119 L 1338 120 L 1356 120 L 1356 119 L 1352 118 L 1350 115 L 1350 97 L 1354 92 L 1361 94 L 1363 92 L 1363 88 Z
M 1367 91 L 1366 95 L 1368 98 L 1373 97 L 1373 91 L 1375 89 L 1380 89 L 1383 92 L 1383 98 L 1382 99 L 1370 104 L 1366 108 L 1366 110 L 1365 111 L 1365 116 L 1366 118 L 1370 121 L 1376 121 L 1377 120 L 1379 120 L 1383 117 L 1386 121 L 1391 121 L 1395 118 L 1396 120 L 1412 120 L 1412 119 L 1408 117 L 1408 95 L 1413 91 L 1417 91 L 1420 95 L 1420 116 L 1417 119 L 1415 119 L 1415 120 L 1431 120 L 1431 119 L 1427 117 L 1427 96 L 1426 95 L 1425 90 L 1422 87 L 1415 86 L 1411 88 L 1408 91 L 1407 90 L 1407 86 L 1399 89 L 1396 89 L 1396 91 L 1399 91 L 1401 93 L 1401 116 L 1398 119 L 1396 119 L 1395 118 L 1395 115 L 1393 116 L 1391 116 L 1390 115 L 1390 94 L 1389 93 L 1389 91 L 1385 87 L 1383 87 L 1382 86 L 1377 86 L 1376 87 L 1370 88 Z
M 1480 87 L 1473 93 L 1471 98 L 1471 109 L 1472 110 L 1472 112 L 1473 114 L 1480 120 L 1482 120 L 1483 121 L 1491 121 L 1492 120 L 1494 120 L 1496 119 L 1502 112 L 1502 110 L 1503 109 L 1503 104 L 1504 103 L 1503 102 L 1503 97 L 1501 93 L 1494 87 L 1491 87 L 1490 86 Z
M 1507 89 L 1507 91 L 1510 91 L 1512 95 L 1512 114 L 1511 115 L 1511 117 L 1508 119 L 1506 119 L 1506 120 L 1523 120 L 1523 119 L 1521 119 L 1518 116 L 1518 95 L 1523 91 L 1528 91 L 1531 94 L 1531 117 L 1528 119 L 1526 119 L 1526 120 L 1543 120 L 1543 119 L 1541 119 L 1538 116 L 1538 95 L 1542 91 L 1548 91 L 1551 95 L 1551 116 L 1549 118 L 1546 119 L 1546 120 L 1563 120 L 1563 119 L 1561 119 L 1558 117 L 1558 97 L 1557 96 L 1557 92 L 1553 87 L 1551 86 L 1546 86 L 1541 88 L 1538 91 L 1537 91 L 1534 87 L 1532 87 L 1531 86 L 1524 87 L 1519 91 L 1518 90 L 1518 86 L 1516 86 L 1513 88 Z
M 1632 86 L 1627 88 L 1622 93 L 1620 97 L 1619 107 L 1620 108 L 1620 112 L 1622 116 L 1625 119 L 1629 121 L 1638 121 L 1642 119 L 1647 114 L 1649 110 L 1649 108 L 1647 108 L 1642 114 L 1637 115 L 1636 116 L 1631 114 L 1628 111 L 1626 107 L 1625 101 L 1626 100 L 1648 100 L 1648 98 L 1645 90 L 1641 87 L 1639 87 L 1638 86 Z
M 1658 88 L 1654 93 L 1654 96 L 1656 98 L 1659 98 L 1661 96 L 1661 91 L 1663 89 L 1668 89 L 1671 92 L 1671 98 L 1658 104 L 1654 108 L 1653 110 L 1653 116 L 1654 118 L 1658 121 L 1664 121 L 1670 117 L 1671 117 L 1672 118 L 1672 120 L 1674 121 L 1679 121 L 1683 118 L 1683 115 L 1681 116 L 1679 116 L 1678 115 L 1678 97 L 1677 96 L 1677 92 L 1676 90 L 1673 87 L 1671 87 L 1670 86 L 1664 86 L 1663 87 Z
M 1743 87 L 1741 87 L 1740 88 L 1736 86 L 1732 86 L 1731 87 L 1728 87 L 1725 89 L 1723 93 L 1723 98 L 1725 102 L 1730 106 L 1735 108 L 1740 114 L 1736 119 L 1732 119 L 1726 114 L 1725 109 L 1723 109 L 1723 121 L 1725 121 L 1726 120 L 1729 120 L 1730 121 L 1738 121 L 1742 119 L 1745 115 L 1745 108 L 1744 106 L 1739 102 L 1733 99 L 1728 94 L 1728 92 L 1733 88 L 1734 89 L 1736 89 L 1740 93 L 1741 97 L 1743 97 Z
M 168 89 L 171 89 L 175 93 L 175 95 L 176 96 L 177 101 L 176 102 L 176 104 L 173 107 L 170 107 L 166 103 L 164 98 L 165 91 Z
M 544 96 L 546 92 L 551 89 L 555 90 L 558 94 L 558 96 L 557 97 L 545 97 Z
M 928 95 L 932 90 L 936 89 L 941 93 L 941 95 L 942 96 L 941 97 L 929 97 Z
M 1000 89 L 1005 89 L 1010 95 L 1010 113 L 1005 117 L 1000 116 L 996 112 L 994 107 L 994 97 L 996 93 Z
M 1295 95 L 1299 90 L 1303 89 L 1308 93 L 1309 96 L 1308 97 L 1296 97 Z
M 1447 89 L 1452 89 L 1456 93 L 1456 95 L 1457 96 L 1457 112 L 1456 114 L 1452 117 L 1447 116 L 1442 111 L 1442 109 L 1441 108 L 1441 97 L 1442 96 L 1442 94 Z
M 1484 89 L 1488 89 L 1490 90 L 1494 94 L 1496 99 L 1496 111 L 1494 115 L 1491 118 L 1489 118 L 1488 119 L 1487 118 L 1485 118 L 1481 114 L 1478 106 L 1478 96 L 1480 92 Z
M 1626 94 L 1630 90 L 1632 90 L 1633 89 L 1634 90 L 1636 90 L 1638 92 L 1639 96 L 1638 97 L 1627 97 L 1626 96 Z
M 1698 89 L 1702 89 L 1704 90 L 1707 94 L 1707 114 L 1702 117 L 1700 117 L 1694 113 L 1692 109 L 1692 104 L 1691 103 L 1692 96 L 1694 92 Z
M 444 91 L 448 92 L 452 96 L 453 98 L 453 102 L 454 103 L 453 112 L 448 118 L 441 118 L 438 115 L 438 95 Z
M 1195 91 L 1199 92 L 1202 95 L 1204 99 L 1204 104 L 1205 105 L 1203 114 L 1198 118 L 1192 118 L 1190 117 L 1188 114 L 1188 98 L 1189 97 L 1189 95 L 1192 92 L 1194 92 Z
M 267 101 L 268 102 L 268 112 L 263 116 L 259 116 L 256 112 L 257 108 L 262 103 L 264 103 Z
M 832 101 L 833 102 L 833 112 L 828 116 L 824 116 L 821 112 L 822 108 L 827 103 L 829 103 Z
M 1254 101 L 1255 102 L 1255 112 L 1254 114 L 1251 116 L 1246 116 L 1244 114 L 1244 108 L 1248 104 Z
M 1670 101 L 1671 102 L 1671 113 L 1667 116 L 1663 116 L 1660 113 L 1660 108 L 1664 104 Z
M 503 102 L 504 103 L 504 113 L 500 116 L 496 116 L 493 113 L 493 109 L 496 105 L 501 102 Z
M 972 102 L 973 103 L 973 113 L 969 116 L 965 116 L 962 113 L 962 109 L 965 105 L 970 102 Z
M 1382 102 L 1383 103 L 1383 113 L 1379 116 L 1375 116 L 1372 113 L 1372 109 L 1375 105 L 1380 102 Z
M 160 127 L 161 124 L 164 121 L 182 122 L 184 124 L 184 126 L 182 129 L 178 131 L 174 131 L 173 132 L 164 131 Z
M 18 159 L 18 163 L 1785 163 L 1785 159 Z
M 218 194 L 216 196 L 199 196 L 191 213 L 191 215 L 199 216 L 206 219 L 210 223 L 212 227 L 212 235 L 210 239 L 205 243 L 201 243 L 195 239 L 190 239 L 189 240 L 189 244 L 192 246 L 204 246 L 211 243 L 216 238 L 218 233 L 218 223 L 216 218 L 210 212 L 202 209 L 199 209 L 198 208 L 198 206 L 200 203 L 215 203 L 217 201 L 217 199 L 219 196 Z
M 122 195 L 119 195 L 116 198 L 114 202 L 111 205 L 109 209 L 106 212 L 102 219 L 95 228 L 95 233 L 115 233 L 116 234 L 116 245 L 122 245 L 122 234 L 123 233 L 130 233 L 130 228 L 123 228 L 122 227 Z
M 245 195 L 231 202 L 231 203 L 237 202 L 239 204 L 239 239 L 235 244 L 232 244 L 232 245 L 252 245 L 252 244 L 247 243 L 245 239 Z
M 651 195 L 637 202 L 637 203 L 643 202 L 645 204 L 645 239 L 641 244 L 638 244 L 638 245 L 658 245 L 658 244 L 653 243 L 651 239 Z
M 678 196 L 672 200 L 669 205 L 668 210 L 670 211 L 673 205 L 679 201 L 685 202 L 690 208 L 690 216 L 688 221 L 683 228 L 672 239 L 668 245 L 697 245 L 699 242 L 701 235 L 699 235 L 696 239 L 679 239 L 678 238 L 692 223 L 697 214 L 697 204 L 694 199 L 689 196 L 686 196 L 685 195 Z
M 781 196 L 778 196 L 777 195 L 770 196 L 764 200 L 761 206 L 761 208 L 763 208 L 763 207 L 769 201 L 771 201 L 772 200 L 777 201 L 780 204 L 781 206 L 781 210 L 780 212 L 775 217 L 770 219 L 769 221 L 774 221 L 779 223 L 782 226 L 784 230 L 784 234 L 782 239 L 777 243 L 772 243 L 765 239 L 761 240 L 761 244 L 764 246 L 776 246 L 777 245 L 779 245 L 783 243 L 787 239 L 789 235 L 789 233 L 790 232 L 789 223 L 788 221 L 782 216 L 787 209 L 787 202 L 786 200 Z
M 1377 196 L 1374 196 L 1373 195 L 1366 196 L 1362 198 L 1359 201 L 1357 205 L 1357 208 L 1358 208 L 1363 202 L 1368 200 L 1370 200 L 1375 203 L 1377 208 L 1375 213 L 1371 217 L 1367 219 L 1365 219 L 1365 221 L 1370 221 L 1374 223 L 1378 227 L 1380 232 L 1379 237 L 1377 240 L 1373 243 L 1368 243 L 1361 239 L 1357 240 L 1356 242 L 1357 244 L 1360 246 L 1372 246 L 1373 245 L 1375 245 L 1380 242 L 1383 239 L 1385 235 L 1385 224 L 1384 223 L 1384 221 L 1378 216 L 1378 215 L 1382 211 L 1382 209 L 1383 208 L 1383 203 L 1382 202 L 1382 200 Z
M 1402 196 L 1396 200 L 1393 205 L 1392 210 L 1394 211 L 1397 205 L 1403 201 L 1409 202 L 1414 208 L 1414 216 L 1412 221 L 1407 228 L 1396 239 L 1392 245 L 1421 245 L 1423 242 L 1425 235 L 1423 235 L 1420 239 L 1403 239 L 1402 238 L 1416 223 L 1421 214 L 1421 204 L 1418 199 L 1413 196 L 1410 196 L 1409 195 Z
M 1457 196 L 1450 202 L 1447 210 L 1449 211 L 1454 203 L 1460 201 L 1461 202 L 1464 202 L 1469 207 L 1470 213 L 1469 214 L 1469 217 L 1464 226 L 1455 235 L 1455 236 L 1447 244 L 1447 245 L 1477 245 L 1480 235 L 1478 235 L 1475 239 L 1458 239 L 1457 238 L 1472 222 L 1475 217 L 1476 210 L 1477 209 L 1476 204 L 1472 198 L 1464 195 Z
M 1505 196 L 1502 196 L 1501 195 L 1494 196 L 1490 198 L 1485 205 L 1485 207 L 1484 208 L 1484 217 L 1486 222 L 1490 226 L 1494 228 L 1501 228 L 1505 226 L 1507 227 L 1503 235 L 1498 240 L 1491 244 L 1486 245 L 1486 247 L 1494 246 L 1495 245 L 1500 244 L 1508 238 L 1514 228 L 1515 222 L 1516 221 L 1516 211 L 1515 210 L 1515 207 L 1511 200 Z
M 164 196 L 137 196 L 133 208 L 135 208 L 135 207 L 141 202 L 157 202 L 158 203 L 153 219 L 152 220 L 152 222 L 151 223 L 151 225 L 150 226 L 150 228 L 149 229 L 149 231 L 148 232 L 148 234 L 147 235 L 147 237 L 146 238 L 146 240 L 145 241 L 145 243 L 144 244 L 144 246 L 149 246 L 150 245 L 151 239 L 152 238 L 152 236 L 153 235 L 153 233 L 154 232 L 154 230 L 155 229 L 155 227 L 163 205 L 163 202 L 165 198 Z
M 754 196 L 727 196 L 725 199 L 725 201 L 723 204 L 722 208 L 724 208 L 731 202 L 746 202 L 747 203 L 747 205 L 746 206 L 746 208 L 745 209 L 745 211 L 737 233 L 737 236 L 734 243 L 734 246 L 739 246 L 739 244 L 746 225 L 746 222 L 754 200 Z
M 1497 198 L 1501 198 L 1505 201 L 1508 208 L 1508 221 L 1503 224 L 1498 224 L 1496 223 L 1492 217 L 1492 213 L 1491 212 L 1492 204 Z
M 115 206 L 116 207 L 116 227 L 115 228 L 101 228 L 100 227 L 101 225 L 104 222 L 108 215 Z
M 175 238 L 173 240 L 174 245 L 175 246 L 180 246 L 182 243 L 181 239 L 180 238 Z
M 710 238 L 708 240 L 708 244 L 710 246 L 714 246 L 716 244 L 716 240 L 714 238 Z
M 1434 238 L 1432 240 L 1432 244 L 1434 246 L 1438 246 L 1440 244 L 1440 240 L 1438 238 Z
M 18 284 L 18 290 L 1785 290 L 1785 284 Z" fill="#000000" fill-rule="evenodd"/>
</svg>
